# xmcd
#
# Track frame offsets: 
#        182
#        10092
#        21267
#        37450
#        47382
#        60832
#        74157
#        85955
#        99750
#        114080
#        125450
#        140097
#        154387
#        169127
#        178687
#        194107
#        209135
#        220600
#
# Disc length: 3136 seconds
#
# Revision: 2
# Processed by: cddbd v1.5.2PL0 Copyright (c) Steve Scherf et al.
# Submitted via: ExactAudioCopy v0.99pb4
#
DISCID=090c3e12
DTITLE=Various Artist - Go Girl!: Soul Sisters Tellin' It Like It Is
DYEAR=1996
DGENRE=Blues
TTITLE0=Janice Tyrone - I'm Gonna Make It
TTITLE1=Aretha Franklin - Respect
TTITLE2=Priscilla Price - You Did Me Wrong (You Used Me For A Good Thi
TTITLE2=ng)
TTITLE3=Ann Peebles - I'll Get Along
TTITLE4=Mable John - Your Good Thing (Is About To End)
TTITLE5=Laura Lee - Dirty Man
TTITLE6=Apollas - Seven Days
TTITLE7=Irma Thomas - You're The Dog
TTITLE8=Laura Lee - Wedlock Is A Padlock
TTITLE9=Jeanne and The Darlings - Soul Girl
TTITLE10=Laura Lee - Women's Love Rights
TTITLE11=Honey Cone - The Day I Found Myself
TTITLE12=Betty LaVette - Your Turn To Cry
TTITLE13=Betty Wright - Girls Can't Do What The Guys Do
TTITLE14=Lyn Collins - Think (About It)
TTITLE15=Ilana - Where Would You Be Today
TTITLE16=The Velvelettes - Needle In A Haystack
TTITLE17=Aretha Franklin - Do Right Woman - Do Right Man
EXTD=
EXTT0=
EXTT1=
EXTT2=
EXTT3=
EXTT4=
EXTT5=
EXTT6=
EXTT7=
EXTT8=
EXTT9=
EXTT10=
EXTT11=
EXTT12=
EXTT13=
EXTT14=
EXTT15=
EXTT16=
EXTT17=
PLAYORDER=
